<svg xmlns="http://www.w3.org/2000/svg" xmlns:xlink="http://www.w3.org/1999/xlink" width="1080" zoomAndPan="magnify" viewBox="0 0 810 809.999993" height="1080" preserveAspectRatio="xMidYMid meet" version="1.0"><defs><g/><clipPath id="cd2cb096d1"><path d="M 0.777344 0.710938 L 702 0.710938 L 702 683.289062 L 0.777344 683.289062 Z M 0.777344 0.710938 " clip-rule="nonzero"/></clipPath><clipPath id="0f5d1d3aa1"><path d="M 351 0.710938 C 157.578125 0.710938 0.777344 153.511719 0.777344 342 C 0.777344 530.488281 157.578125 683.289062 351 683.289062 C 544.421875 683.289062 701.222656 530.488281 701.222656 342 C 701.222656 153.511719 544.421875 0.710938 351 0.710938 Z M 351 0.710938 " clip-rule="nonzero"/></clipPath><clipPath id="774ec76cad"><path d="M 0.777344 0.710938 L 701.28125 0.710938 L 701.28125 683.289062 L 0.777344 683.289062 Z M 0.777344 0.710938 " clip-rule="nonzero"/></clipPath><clipPath id="d1d76c2739"><path d="M 351 0.710938 C 157.578125 0.710938 0.777344 153.511719 0.777344 342 C 0.777344 530.488281 157.578125 683.289062 351 683.289062 C 544.421875 683.289062 701.222656 530.488281 701.222656 342 C 701.222656 153.511719 544.421875 0.710938 351 0.710938 Z M 351 0.710938 " clip-rule="nonzero"/></clipPath><clipPath id="92faa4c240"><rect x="0" width="702" y="0" height="684"/></clipPath><clipPath id="4d594fa170"><rect x="0" width="580" y="0" height="349"/></clipPath><clipPath id="3ab302432e"><rect x="0" width="703" y="0" height="684"/></clipPath></defs><g transform="matrix(1, 0, 0, 1, 54, 63)"><g clip-path="url(#3ab302432e)"><g clip-path="url(#cd2cb096d1)"><g clip-path="url(#0f5d1d3aa1)"><g transform="matrix(1, 0, 0, 1, -0.000000000000007105, 0.000000000000035527)"><g clip-path="url(#92faa4c240)"><g clip-path="url(#774ec76cad)"><g clip-path="url(#d1d76c2739)"><path fill="#362c5d" d="M 0.777344 0.710938 L 702.023438 0.710938 L 702.023438 683.289062 L 0.777344 683.289062 Z M 0.777344 0.710938 " fill-opacity="1" fill-rule="nonzero"/></g></g></g></g></g></g><g transform="matrix(1, 0, 0, 1, 73, 159)"><g clip-path="url(#4d594fa170)"><g fill="#ffffff" fill-opacity="1"><g transform="translate(27.222481, 250.919424)"><g><path d="M -24.875 -198.4375 C -15.03125 -202.582031 -6.484375 -204.65625 0.765625 -204.65625 C 8.023438 -204.65625 14.414062 -203.960938 19.9375 -202.578125 C 25.46875 -201.203125 31.125 -198.914062 36.90625 -195.71875 C 42.695312 -192.519531 48.097656 -188.59375 53.109375 -183.9375 C 62.773438 -174.78125 70.976562 -164.414062 77.71875 -152.84375 L 129.53125 -55.703125 L 204.65625 -184.96875 L 206.984375 -184.96875 L 233.9375 -32.640625 C 238.082031 -9.148438 245.25 9.5 255.4375 23.3125 C 265.625 37.300781 279.613281 44.296875 297.40625 44.296875 C 298.613281 44.296875 299.734375 44.296875 300.765625 44.296875 L 300.765625 46.890625 C 291.265625 49.484375 281.941406 50.78125 272.796875 50.78125 C 254.140625 50.78125 237.125 43.4375 221.75 28.75 C 206.90625 14.757812 196.804688 -5.703125 191.453125 -32.640625 L 178.75 -108.03125 L 130.046875 -23.578125 C 123.484375 -12.691406 120.117188 -3.101562 119.953125 5.1875 L 117.609375 5.1875 L 53.109375 -117.09375 L 40.40625 -13.46875 C 39.894531 -9.5 41.625 -6.304688 45.59375 -3.890625 C 47.144531 -2.847656 48.785156 -2.328125 50.515625 -2.328125 L 54.65625 -2.328125 L 54.65625 0 L 0.515625 0 L 0.515625 -2.59375 L 4.65625 -2.59375 C 9.15625 -2.59375 13.171875 -3.929688 16.703125 -6.609375 C 20.242188 -9.285156 22.445312 -12.953125 23.3125 -17.609375 L 40.9375 -141.1875 C 33.164062 -155.007812 24.269531 -167.269531 14.25 -177.96875 C 3.019531 -190.0625 -8.722656 -196.109375 -20.984375 -196.109375 C -22.191406 -196.109375 -23.316406 -196.019531 -24.359375 -195.84375 Z M -24.875 -198.4375 "/></g></g></g><g fill="#ffffff" fill-opacity="1"><g transform="translate(277.991318, 250.919424)"><g><path d="M -24.875 -198.4375 C -15.03125 -202.582031 -6.484375 -204.65625 0.765625 -204.65625 C 8.023438 -204.65625 14.414062 -203.960938 19.9375 -202.578125 C 25.46875 -201.203125 31.125 -198.914062 36.90625 -195.71875 C 42.695312 -192.519531 48.097656 -188.59375 53.109375 -183.9375 C 62.773438 -174.78125 70.976562 -164.414062 77.71875 -152.84375 L 129.53125 -55.703125 L 204.65625 -184.96875 L 206.984375 -184.96875 L 233.9375 -32.640625 C 238.082031 -9.148438 245.25 9.5 255.4375 23.3125 C 265.625 37.300781 279.613281 44.296875 297.40625 44.296875 C 298.613281 44.296875 299.734375 44.296875 300.765625 44.296875 L 300.765625 46.890625 C 291.265625 49.484375 281.941406 50.78125 272.796875 50.78125 C 254.140625 50.78125 237.125 43.4375 221.75 28.75 C 206.90625 14.757812 196.804688 -5.703125 191.453125 -32.640625 L 178.75 -108.03125 L 130.046875 -23.578125 C 123.484375 -12.691406 120.117188 -3.101562 119.953125 5.1875 L 117.609375 5.1875 L 53.109375 -117.09375 L 40.40625 -13.46875 C 39.894531 -9.5 41.625 -6.304688 45.59375 -3.890625 C 47.144531 -2.847656 48.785156 -2.328125 50.515625 -2.328125 L 54.65625 -2.328125 L 54.65625 0 L 0.515625 0 L 0.515625 -2.59375 L 4.65625 -2.59375 C 9.15625 -2.59375 13.171875 -3.929688 16.703125 -6.609375 C 20.242188 -9.285156 22.445312 -12.953125 23.3125 -17.609375 L 40.9375 -141.1875 C 33.164062 -155.007812 24.269531 -167.269531 14.25 -177.96875 C 3.019531 -190.0625 -8.722656 -196.109375 -20.984375 -196.109375 C -22.191406 -196.109375 -23.316406 -196.019531 -24.359375 -195.84375 Z M -24.875 -198.4375 "/></g></g></g></g></g></g></g></svg>